Coordinates
version=1
nRows=19
nColumns=33
inDegrees=yes

Units are S.I. units (second, meters, Newtons, ...)
Angles are in degrees.

endheader
time	ground_thorax_rot_x	ground_thorax_rot_y	ground_thorax_rot_z	ground_thorax_tx	ground_thorax_ty	ground_thorax_tz	clav_prot_r	clav_elev_r	scapula_abduction_r	scapula_elevation_r	scapula_upward_rot_r	scapula_winging_r	shoulder_elv_r	plane_of_elev_r	axial_rot_r	elbow_flexion_r	pro_sup_r	wrist_flex_r	wrist_dev_r	clav_prot_l	clav_elev_l	scapula_abduction_l	scapula_elevation_l	scapula_upward_rot_l	scapula_winging_l	shoulder_elv_l	plane_of_elev_l	axial_rot_l	elbow_flexion_l	pro_sup_l	wrist_flex_l	wrist_dev_l
      4.20000000	    -90.00000000	     90.00000000	    -90.00000000	    -59.07591413	    784.91920225	      8.31178602	     35.98991593	     43.43962704	     45.00000000	     45.00000000	      3.76529100	  -3988.96603561	    638.63666704	    163.55665167	    -19.74018157	   1809.94158271	     27.94100841	     17.03177900	     10.65748225	    -45.00000000	      4.18746461	     45.00000000	    -15.16629321	    -45.00000000	   1915.41439451	  -4029.61912547	    153.18581104	     42.16068030	   -712.80750004	     28.85484900	      8.98946603	    -18.62832900
      4.21000000	    -90.00000000	     90.00000000	    -90.00000000	    -58.71255594	    785.19618571	      8.58652842	     36.34937044	     43.19098268	     45.00000000	     45.00000000	      3.64269084	  -3988.81901636	    638.78054990	    163.57301287	    -19.72757661	   1810.17093749	     27.75127901	     17.63673008	     10.39066928	    -45.00000000	      4.07083547	     45.00000000	    -15.01625556	    -45.00000000	   1915.98017880	  -4029.42827398	    152.78810977	     41.33845379	   -712.75398480	     29.10744297	      8.52491332	    -18.92103313
      4.22000000	    -90.00000000	     90.00000000	    -90.00000000	    -58.46452455	    785.44064529	      8.86132070	     36.27819662	     43.40634531	     45.00000000	     45.00000000	      3.84029962	  -3988.88074283	    638.49478693	    163.68973397	    -19.68467554	   1810.10060403	     27.74218679	     16.86277454	     10.52919852	    -45.00000000	      4.27923458	     45.00000000	    -15.30483609	    -45.00000000	   1915.46084944	  -4029.81198498	    153.28665963	     41.47922974	   -712.56769702	     29.22718614	      8.75024256	    -18.61630251
      4.23000000	    -90.00000000	     90.00000000	    -90.00000000	    -58.33680779	    785.63318753	      9.12824759	     36.33674648	     43.40580863	     45.00000000	     45.00000000	      3.45007942	  -3988.78369751	    638.89071113	    163.62081438	    -19.35783627	   1810.22693649	     27.67443635	     17.92541691	     10.26663419	    -45.00000000	      4.28060342	     45.00000000	    -15.06181844	    -45.00000000	   1916.31715556	  -4029.59355872	    152.65702265	     41.47698509	   -712.58096697	     29.26599180	      8.49490988	    -19.07931478
      4.24000000	    -90.00000000	     90.00000000	    -90.00000000	    -58.32111543	    785.77660052	      9.39581908	     36.33314285	     43.48923744	     45.00000000	     45.00000000	      3.68195891	  -3988.73804160	    638.66899737	    163.67880875	    -19.36457232	   1810.46127454	     27.71411681	     17.26468674	     10.39129164	    -45.00000000	      4.37128860	     45.00000000	    -15.21391216	    -45.00000000	   1915.85855197	  -4029.90427199	    153.19915656	     41.38154936	   -712.50253088	     29.40268260	      8.62807591	    -18.78467125
      4.25000000	    -90.00000000	     90.00000000	    -90.00000000	    -58.41481774	    785.85851561	      9.64637855	     36.37807366	     43.40194156	     45.00000000	     45.00000000	      4.02101807	  -3988.71475001	    638.41699276	    163.77791224	    -19.43559477	   1810.48770226	     27.70820502	     17.64133295	     10.01452178	    -45.00000000	      4.43675838	     45.00000000	    -15.14603210	    -45.00000000	   1916.26715687	  -4029.77474864	    152.87739104	     41.38560030	   -712.43352152	     29.46493459	      8.51558809	    -19.01821982
      4.26000000	    -90.00000000	     90.00000000	    -90.00000000	    -58.60741736	    785.88153097	      9.87841076	     36.33034815	     43.67054464	     45.00000000	     45.00000000	      3.38328786	  -3988.62661807	    639.06045261	    163.68754964	    -19.05935036	   1810.78558387	     27.91201298	     17.28828513	     10.58985302	    -45.00000000	      4.43600002	     45.00000000	    -15.35486935	    -45.00000000	   1915.81374723	  -4030.09615374	    153.36434845	     41.32142591	   -712.37216937	     29.59614435	      8.59146022	    -18.77251054
      4.27000000	    -90.00000000	     90.00000000	    -90.00000000	    -58.90616144	    785.84691676	     10.10102595	     36.34978900	     43.54686055	     45.00000000	     45.00000000	      3.83892082	  -3988.64208928	    638.60354105	    163.75758379	    -19.29872713	   1810.66830561	     27.97610019	     17.68863779	     10.11580845	    -45.00000000	      4.52691797	     45.00000000	    -15.18697394	    -45.00000000	   1916.34935053	  -4029.96426819	    153.00859891	     41.37187980	   -712.31886384	     29.72825642	      8.48201788	    -19.02088813
      4.28000000	    -90.00000000	     90.00000000	    -90.00000000	    -59.28847491	    785.75584563	     10.29184303	     36.35631810	     43.57490514	     45.00000000	     45.00000000	      4.05005940	  -3988.69501001	    638.49229705	    163.78981331	    -19.37243139	   1810.70259278	     28.13507671	     17.40163156	     10.21713235	    -45.00000000	      4.58959597	     45.00000000	    -15.27625685	    -45.00000000	   1916.11310586	  -4030.09446391	    153.30247621	     41.36653213	   -712.29363649	     29.89503167	      8.51654440	    -18.92093694
      4.29000000	    -90.00000000	     90.00000000	    -90.00000000	    -59.74838459	    785.61377110	     10.45044871	     36.33210687	     43.63608153	     45.00000000	     45.00000000	      3.97166889	  -3988.63471500	    638.64338354	    163.78744222	    -19.36549476	   1810.74677670	     28.25765106	     17.77561772	     10.13445387	    -45.00000000	      4.66011772	     45.00000000	    -15.24056333	    -45.00000000	   1916.41839806	  -4030.01769070	    153.03663395	     41.44910787	   -712.20940717	     30.01902872	      8.44968649	    -19.08354835
      4.30000000	    -90.00000000	     90.00000000	    -90.00000000	    -60.27419421	    785.42712420	     10.57211485	     36.32720416	     43.61239672	     45.00000000	     45.00000000	      4.21992982	  -3988.66725614	    638.44726618	    163.80805743	    -19.50065504	   1810.79608098	     28.40826770	     17.42703783	     10.24550164	    -45.00000000	      4.67766497	     45.00000000	    -15.34643084	    -45.00000000	   1916.12834427	  -4030.16713470	    153.38465371	     41.47394320	   -712.19506981	     30.16748651	      8.49741719	    -18.98431232
      4.31000000	    -90.00000000	     90.00000000	    -90.00000000	    -60.85436612	    785.20369566	     10.65392578	     36.28802633	     43.70033053	     45.00000000	     45.00000000	      4.05951827	  -3988.61060002	    638.70052635	    163.78998635	    -19.47735207	   1810.83389860	     28.51640083	     17.87178823	     10.18672968	    -45.00000000	      4.77418649	     45.00000000	    -15.28685097	    -45.00000000	   1916.49073260	  -4030.08279406	    153.06550812	     41.58286288	   -712.13156555	     30.24862337	      8.44788442	    -19.14572662
      4.32000000	    -90.00000000	     90.00000000	    -90.00000000	    -61.47529722	    784.95252818	     10.69466160	     36.28382020	     43.63380355	     45.00000000	     45.00000000	      4.37944048	  -3988.65392963	    638.47244438	    163.83151588	    -19.61236110	   1810.85080773	     28.64053231	     17.45842356	     10.29851830	    -45.00000000	      4.77826726	     45.00000000	    -15.40954698	    -45.00000000	   1916.12359460	  -4030.21412314	    153.44850024	     41.61425667	   -712.16114684	     30.33226850	      8.51628198	    -19.03873546
      4.33000000	    -90.00000000	     90.00000000	    -90.00000000	    -62.12873168	    784.68020542	     10.69473247	     36.23711824	     43.73746710	     45.00000000	     45.00000000	      4.15434592	  -3988.57064336	    638.78545666	    163.76974384	    -19.52666266	   1810.88763825	     28.71290108	     17.94105279	     10.24660388	    -45.00000000	      4.90121255	     45.00000000	    -15.35397427	    -45.00000000	   1916.47819707	  -4030.10614732	    153.08071149	     41.73260506	   -712.10988919	     30.32609401	      8.48359333	    -19.18603772
      4.34000000	    -90.00000000	     90.00000000	    -90.00000000	    -62.80549832	    784.39346638	     10.65580093	     36.23563318	     43.63088168	     45.00000000	     45.00000000	      4.53046647	  -3988.61318912	    638.48757155	    163.84138545	    -19.63583317	   1810.89356451	     28.79731710	     17.46781979	     10.33979474	    -45.00000000	      4.89601918	     45.00000000	    -15.51938226	    -45.00000000	   1916.04894511	  -4030.22430558	    153.50382823	     41.74381529	   -712.16052381	     30.31903486	      8.56591438	    -19.07141118
      4.35000000	    -90.00000000	     90.00000000	    -90.00000000	    -63.50621205	    784.09555578	     10.58053862	     36.18117056	     43.75278192	     45.00000000	     45.00000000	      4.19125947	  -3988.53175256	    638.88256002	    163.74934247	    -19.44946081	   1810.97307452	     28.83810092	     18.01686998	     10.28665732	    -45.00000000	      5.03280657	     45.00000000	    -15.48760464	    -45.00000000	   1916.41944348	  -4030.06106404	    153.07698050	     41.84940160	   -712.12220546	     30.22794168	      8.53799900	    -19.20609037
      4.36000000	    -90.00000000	     90.00000000	    -90.00000000	    -64.22582620	    783.79339042	     10.47333027	     36.17991647	     43.61328883	     45.00000000	     45.00000000	      4.64048211	  -3988.56427051	    638.55538272	    163.84919160	    -19.51358203	   1810.95307604	     28.90195159	     17.50157725	     10.36070360	    -45.00000000	      5.02302172	     45.00000000	    -15.64388864	    -45.00000000	   1915.92298970	  -4030.18832654	    153.51263355	     41.82390789	   -712.19463829	     30.15367497	      8.62415224	    -19.08627404
      4.37000000	    -90.00000000	     90.00000000	    -90.00000000	    -64.96851043	    783.49144643	     10.33842995	     36.12508342	     43.74002288	     45.00000000	     45.00000000	      4.25540196	  -3988.46893676	    638.95205160	    163.71686736	    -19.27208181	   1811.05969605	     28.93129682	     18.06673173	     10.29418826	    -45.00000000	      5.16556834	     45.00000000	    -15.64658713	    -45.00000000	   1916.28342667	  -4030.00003631	    153.07084721	     41.89439884	   -712.13372337	     30.01809504	      8.58816774	    -19.20918286
      4.38000000	    -90.00000000	     90.00000000	    -90.00000000	    -65.73716574	    783.19633712	     10.18054877	     36.12073088	     43.58514293	     45.00000000	     45.00000000	      4.70095365	  -3988.46511370	    638.61804778	    163.82874974	    -19.28288406	   1811.04178960	     28.99781787	     17.55901234	     10.35425330	    -45.00000000	      5.15032704	     45.00000000	    -15.82316956	    -45.00000000	   1915.76069445	  -4030.10621616	    153.50048826	     41.82779578	   -712.20387460	     29.92764651	      8.66489992	    -19.09932323
